<!DOCTYPE svg PUBLIC "-//W3C//DTD SVG 1.1//EN" "http://www.w3.org/Graphics/SVG/1.1/DTD/svg11.dtd">
<!-- Uploaded to: SVG Repo, www.svgrepo.com, Transformed by: SVG Repo Mixer Tools -->
<svg width="64px" height="64px" viewBox="-9.6 -9.6 67.20 67.20" xmlns="http://www.w3.org/2000/svg" fill="#ED1C24" stroke="#ED1C24">
<g id="SVGRepo_bgCarrier" stroke-width="0"/>
<g id="SVGRepo_tracerCarrier" stroke-linecap="round" stroke-linejoin="round"/>
<g id="SVGRepo_iconCarrier">
<defs>
<style>.a{fill:none;stroke:#ED1C24;stroke-linecap:round;stroke-linejoin:round;}</style>
</defs>
<path class="a" d="M18.8808,6.3975A19.3468,19.3468,0,1,0,42.3963,19.3847"/>
<path class="a" d="M14.9194,25.893C14.8584,21.68,17.4842,13.8021,26.4,9.955L22.7968,3.5432C17.4231,6.169,10.2174,15.2066,14.9194,25.893Z"/>
<path class="a" d="M22.136,12.4087a16.7784,16.7784,0,0,0-2.9215,8.8424c1.8394-3.7912,7.7259-9.6477,17.4192-9.0767l-.3362-7.347A17.9936,17.9936,0,0,0,25.6848,8.683"/>
<path class="a" d="M34.4651,12.1527A16.506,16.506,0,0,0,23.896,20.28c3.3473-2.56,11.238-5.1453,19.64-.2781l3.0022-6.7141a17.7464,17.7464,0,0,0-9.9239-1.5322"/>
<path class="a" d="M13.4377,20.0692a11.6039,11.6039,0,1,0,19.0467-2.7711"/>
</g>
</svg>